<svg id="_x33_0" enable-background="new 0 0 64 64" height="512" viewBox="0 0 64 64" width="512" xmlns="http://www.w3.org/2000/svg" xmlns:xlink="http://www.w3.org/1999/xlink"><linearGradient id="SVGID_1_" gradientUnits="userSpaceOnUse" x1="31.647" x2="31.647" y1="55" y2="8"><stop offset="0" stop-color="#9f2fff"/><stop offset="1" stop-color="#0bb1d3"/></linearGradient><path d="m47 37h6c1.103 0 2-.897 2-2v-2c0-1.103-.897-2-2-2h-6c-1.103 0-2 .897-2 2v2c0 1.103.897 2 2 2zm0-4h6l.001 2h-6.001zm-32 2c0 2.206 1.794 4 4 4s4-1.794 4-4-1.794-4-4-4-4 1.794-4 4zm6 0c0 1.103-.897 2-2 2s-2-.897-2-2 .897-2 2-2 2 .897 2 2zm-17 10.586-3.414 3.414 5.414 5.414 3.414-3.414h2l8.034-8.034c1.549-.085 3.042-.589 4.323-1.523 1.504-1.096 2.583-2.683 3.045-4.443h14.284c.179.879.593 1.671 1.168 2.317l-4.762 4.762c-1.044-.148-2.153.152-2.921.921l-1.585 1.586c-.645.645-1 1.502-1 2.414s.355 1.77 1 2.414l1.586 1.586c.645.645 1.502 1 2.414 1s1.77-.355 2.414-1l1.586-1.586c.645-.645 1-1.502 1-2.414 0-.181-.025-.358-.052-.534l5.052-5.052v9.586c0 1.103.897 2 2 2h2c1.103 0 2-.897 2-2v-9.586l5 5 1.5-1.5 1.793 1.793 1.414-1.414-1.793-1.793 1.5-1.5-4.693-4.693c.786-.884 1.279-2.034 1.279-3.307v-3c0-3.309-2.691-6-6-6h-22v-11c0-1.103-.897-2-2-2h-2c-1.103 0-2 .897-2 2v11h-2v-16c0-1.654-1.346-3-3-3h-7c-1.103 0-2 .897-2 2v2c0 1.103.897 2 2 2h4v11.586l-1-1v-2.675c0-1.5-.584-2.909-1.644-3.969l-.298-.298c-1.06-1.06-2.47-1.644-3.969-1.644-.866 0-1.734.205-2.51.592l-2.267 1.134 2.274 2.274c.263.263.414.628.414 1s-.151.737-.414 1l-.586.586c-.526.526-1.474.526-2 0l-2.274-2.274-1.134 2.267c-.387.776-.592 1.644-.592 2.51 0 1.5.584 2.909 1.644 3.969l.298.298c1.06 1.06 2.47 1.644 3.969 1.644h2.675l1.749 1.749c-.346 1.184-.427 2.448-.204 3.706l-7.131 7.131zm-.586 3.414 1.586-1.586 2.586 2.586-1.586 1.586zm40.484-8.484c.641.3 1.348.484 2.102.484h.586l-5.586 5.586-1.586-1.586zm7.102.484v8h-2v-8zm-11.414 9-1.586 1.586c-.526.526-1.474.526-2 0l-1.586-1.586c-.263-.263-.414-.628-.414-1s.151-.737.414-1l1.586-1.586c.263-.263.628-.414 1-.414s.737.151 1 .414l1.586 1.586c.263.263.414.628.414 1s-.151.737-.414 1zm9.414 3v-2h2v2zm9-7.414-4.586-4.586h.586c.754 0 1.463-.18 2.105-.481l3.481 3.481zm-5-16.586c2.206 0 4 1.794 4 4v3c0 1.654-1.346 3-3 3h-8c-1.654 0-3-1.346-3-3v-1h-14.149l7.5-6zm-27.934 6.466-.056.392c-.224 1.566-1.105 3.013-2.417 3.969-1.346.981-2.998 1.366-4.653 1.082-2.413-.413-4.402-2.376-4.838-4.776-.33-1.818.128-3.585 1.289-4.976 1.145-1.371 2.825-2.157 4.609-2.157h14.149zm1.934-19.466h2v11h-2zm-14-4v-2h7c.551 0 1 .449 1 1v16h-2v-15zm-2.586 17h-3.503c-.965 0-1.873-.376-2.555-1.058l-.298-.298c-.682-.683-1.058-1.59-1.058-2.555 0-.477.096-.954.28-1.395l.306.306c1.289 1.29 3.539 1.29 4.828 0l.586-.586c.645-.645 1-1.502 1-2.414s-.355-1.77-1-2.414l-.306-.306c1.334-.557 2.931-.241 3.95.778l.298.298c.682.683 1.058 1.59 1.058 2.555v3.503l2.129 2.129c-1.255.483-2.386 1.271-3.272 2.333-.242.29-.453.6-.65.917zm-4.414 15.414 5.841-5.841c1 2.014 2.831 3.529 5.045 4.127l-2.886 2.886-2.293-2.293-1.414 1.414 2.293 2.293-2 2h-1.172l-3.414-3.414z" fill="url(#SVGID_1_)"/></svg>